<svg xmlns="http://www.w3.org/2000/svg" viewBox="0 0 117.27 49.19"><defs><style>.cls-1{fill:#f6921e;}.cls-2{fill:#262524;}.cls-3{fill:#ca2026;}</style></defs><title>Asset 1</title><g id="Layer_1-2"><path class="cls-1" d="M11.83 23.69c0-.13 2.7-10 3.63-11.57 3.54-6.13 6.3-6.49 9.75-8 5.93-2.5 9.92-3.83 10.85-4.12h-20.39a28.77 28.77 0 0 0-5.06.4 15.52 15.52 0 0 0-5.8 2.31 11.17 11.17 0 0 0-4 5.15 11 11 0 0 0-.66 3.29 3.64 3.64 0 0 0-.05.63v27.13h5.3a4 4 0 0 0 2.83-2.78c.6-2.1 1.29-3.81 2.06-6.58z"/><path class="cls-2" d="M36 7.44v-2.41c-1.16.44-1.83.52-3.1 1-5.42 2.11-12 3.29-14 9.76-.21.46-.49 1.7-.84 2.94-.62 2.2-1.42 5.25-2.24 8.3-.77 2.87-.77 2.89-1.69 6.4s-1.63 5.14-2.76 5.57h24.63v-31.56z"/><path class="cls-3" d="M0 43.08v6.09h21.58a28.65 28.65 0 0 0 5.06-.4h.05a9.64 9.64 0 0 0 4.55-2.3 11.33 11.33 0 0 0 3.17-3.38z"/><path class="cls-2" d="M48.34 47.85h-.8l-.46-1.18h-2.08l-.46 1.18h-.78l1.83-4.63h.93zm-3.08-1.85h1.55l-.81-2zm10.15 1.85h-.75v-3.85l-1.35 3.36h-.79l-1.35-3.32v3.77h-.75v-4.6h1.15l1.35 3.31 1.35-3.31h1.15zm4.05 0h-.69v-.38a1.24 1.24 0 0 1-.41.34 1.27 1.27 0 0 1-.59.13 1.55 1.55 0 0 1-1.12-.47 1.61 1.61 0 0 1-.34-.53 1.9 1.9 0 0 1 0-1.34 1.6 1.6 0 0 1 .34-.53 1.55 1.55 0 0 1 1.13-.47 1.2 1.2 0 0 1 1 .47v-.38h.69zm-1.6-2.6a1 1 0 0 0-.4.08.89.89 0 0 0-.3.22 1 1 0 0 0-.19.32 1.2 1.2 0 0 0 0 .79 1 1 0 0 0 .19.32.89.89 0 0 0 .3.22 1 1 0 0 0 .79 0 .9.9 0 0 0 .3-.21.94.94 0 0 0 .2-.32 1.19 1.19 0 0 0 0-.81.94.94 0 0 0-.2-.32.89.89 0 0 0-.3-.21 1 1 0 0 0-.39-.08zm4.68.22l-.18-.09-.24-.09-.27-.07h-.29a.79.79 0 0 0-.44.1.32.32 0 0 0-.16.27.23.23 0 0 0 0 .14.31.31 0 0 0 .11.09l.17.06h.54a1.71 1.71 0 0 1 .81.3.75.75 0 0 1 .29.63.9.9 0 0 1-.1.42.93.93 0 0 1-.28.33 1.35 1.35 0 0 1-.45.21 2.26 2.26 0 0 1-.61.08h-.29l-.34-.06a2.52 2.52 0 0 1-.37-.12 1.69 1.69 0 0 1-.36-.21l.32-.52.19.12.23.1.28.07a2 2 0 0 0 .35 0 1.11 1.11 0 0 0 .54-.1.32.32 0 0 0 .18-.28.26.26 0 0 0-.13-.22 1.05 1.05 0 0 0-.42-.13h-.33a1.53 1.53 0 0 1-.8-.31.78.78 0 0 1-.27-.62 1 1 0 0 1 .09-.42.87.87 0 0 1 .26-.32 1.23 1.23 0 0 1 .41-.2 1.94 1.94 0 0 1 .54-.07 2.73 2.73 0 0 1 .71.09 2 2 0 0 1 .58.25zm3.18-.17h-1.21v1.38a.83.83 0 0 0 0 .27.5.5 0 0 0 .11.18.42.42 0 0 0 .16.1.58.58 0 0 0 .2 0 .93.93 0 0 0 .33-.06 1.72 1.72 0 0 0 .31-.15l.27.55a2.11 2.11 0 0 1-.43.22 1.49 1.49 0 0 1-.54.09 1.13 1.13 0 0 1-.84-.3 1.27 1.27 0 0 1-.3-.93v-1.35h-.63v-.63h.63v-1h.69v1h1.21zm2.03-.71a1.5 1.5 0 0 1 .61.12 1.36 1.36 0 0 1 .47.34 1.6 1.6 0 0 1 .31.53 2 2 0 0 1 .11.68v.26h-2.36a1 1 0 0 0 .12.37.87.87 0 0 0 .21.25.85.85 0 0 0 .28.14 1.14 1.14 0 0 0 .32 0 1.39 1.39 0 0 0 .48-.09 1.57 1.57 0 0 0 .44-.25l.34.49a1.72 1.72 0 0 1-.62.35 2.31 2.31 0 0 1-.69.1 1.74 1.74 0 0 1-.65-.12 1.47 1.47 0 0 1-.51-.34 1.5 1.5 0 0 1-.33-.53 1.87 1.87 0 0 1-.12-.68 1.9 1.9 0 0 1 .12-.68 1.53 1.53 0 0 1 .32-.53 1.44 1.44 0 0 1 .5-.34 1.65 1.65 0 0 1 .65-.07zm0 .61a.89.89 0 0 0-.33.06.7.7 0 0 0-.25.16.84.84 0 0 0-.17.25 1.21 1.21 0 0 0-.09.32h1.64a1 1 0 0 0-.26-.58.74.74 0 0 0-.56-.2zm3.79-.61h.29l.25.07-.16.68a1.05 1.05 0 0 0-.26-.09h-.27a.81.81 0 0 0-.3.06.65.65 0 0 0-.24.16.77.77 0 0 0-.16.27 1.08 1.08 0 0 0-.06.36v1.74h-.69v-3.16h.69v.32a1 1 0 0 1 .37-.3 1.27 1.27 0 0 1 .54-.11zm2.38 0a1.74 1.74 0 0 1 .67.13 1.34 1.34 0 0 1 .52.38l-.44.47a1.34 1.34 0 0 0-.35-.24 1 1 0 0 0-.41-.08.93.93 0 0 0-.37.07.9.9 0 0 0-.3.21 1 1 0 0 0-.2.32 1.24 1.24 0 0 0 0 .82 1 1 0 0 0 .2.32.88.88 0 0 0 .3.21.91.91 0 0 0 .37.08 1 1 0 0 0 .43-.09 1.36 1.36 0 0 0 .35-.24l.43.48a1.38 1.38 0 0 1-.52.38 1.71 1.71 0 0 1-.66.13 1.79 1.79 0 0 1-.69-.13 1.54 1.54 0 0 1-.86-.88 1.91 1.91 0 0 1 0-1.32 1.53 1.53 0 0 1 .34-.53 1.55 1.55 0 0 1 .52-.35 1.79 1.79 0 0 1 .67-.14zm4.77 3.26h-.69v-.38a1.21 1.21 0 0 1-.41.34 1.26 1.26 0 0 1-.58.13 1.56 1.56 0 0 1-.62-.12 1.54 1.54 0 0 1-.5-.35 1.58 1.58 0 0 1-.34-.53 1.89 1.89 0 0 1 0-1.34 1.57 1.57 0 0 1 .34-.53 1.54 1.54 0 0 1 .5-.35 1.56 1.56 0 0 1 .62-.12 1.25 1.25 0 0 1 .58.13 1.22 1.22 0 0 1 .41.34v-.38h.69zm-1.6-2.6a1 1 0 0 0-.4.08.9.9 0 0 0-.3.22 1 1 0 0 0-.19.32 1.22 1.22 0 0 0 0 .79 1 1 0 0 0 .19.32.9.9 0 0 0 .3.22 1 1 0 0 0 .4.08.94.94 0 0 0 .39-.08.91.91 0 0 0 .3-.21 1 1 0 0 0 .19-.32 1.21 1.21 0 0 0 0-.81 1 1 0 0 0-.19-.32.9.9 0 0 0-.3-.21 1 1 0 0 0-.39-.08zm4.12-.66h.29l.25.07-.17.68a1 1 0 0 0-.25-.09h-.27a.81.81 0 0 0-.3.06.65.65 0 0 0-.24.16.8.8 0 0 0-.16.27 1.06 1.06 0 0 0-.06.36v1.74h-.69v-3.16h.69v.32a1 1 0 0 1 .39-.33 1.27 1.27 0 0 1 .52-.08zm2.3 0a1.25 1.25 0 0 1 .59.13 1.22 1.22 0 0 1 .41.34v-2h.69v4.76h-.7v-.38a1.21 1.21 0 0 1-.41.34 1.26 1.26 0 0 1-.59.13 1.56 1.56 0 0 1-.62-.12 1.54 1.54 0 0 1-.5-.35 1.59 1.59 0 0 1-.34-.53 1.89 1.89 0 0 1 0-1.34 1.59 1.59 0 0 1 .34-.53 1.54 1.54 0 0 1 .5-.35 1.56 1.56 0 0 1 .63-.1zm.08.65a1 1 0 0 0-.4.08.9.9 0 0 0-.3.22 1 1 0 0 0-.19.32 1.22 1.22 0 0 0 0 .79 1 1 0 0 0 .19.32.89.89 0 0 0 .3.22 1 1 0 0 0 .4.08 1 1 0 0 0 .41-.07.91.91 0 0 0 .3-.21 1 1 0 0 0 .2-.32 1.23 1.23 0 0 0 0-.81 1 1 0 0 0-.2-.32.91.91 0 0 0-.3-.21 1 1 0 0 0-.41-.08zm6.41-2.11a2.62 2.62 0 0 1 .59.07 2.36 2.36 0 0 1 .54.19 2.11 2.11 0 0 1 .45.31 1.76 1.76 0 0 1 .34.4l-.62.42a1.52 1.52 0 0 0-.54-.49 1.56 1.56 0 0 0-.75-.18 1.73 1.73 0 0 0-.66.12 1.54 1.54 0 0 0-.52.34 1.61 1.61 0 0 0-.34.53 2 2 0 0 0 0 1.37 1.6 1.6 0 0 0 .34.53 1.54 1.54 0 0 0 .52.34 1.74 1.74 0 0 0 .66.12 1.57 1.57 0 0 0 .74-.17 1.55 1.55 0 0 0 .55-.49l.61.45a2 2 0 0 1-.35.39 2.17 2.17 0 0 1-.44.29 2.31 2.31 0 0 1-.52.19 2.58 2.58 0 0 1-.58.06 2.61 2.61 0 0 1-1-.18 2.23 2.23 0 0 1-1.27-1.26 2.66 2.66 0 0 1 0-1.92 2.27 2.27 0 0 1 .5-.76 2.29 2.29 0 0 1 .77-.5 2.59 2.59 0 0 1 .98-.17zm4 1.46a1.79 1.79 0 0 1 .68.13 1.66 1.66 0 0 1 .54.35 1.59 1.59 0 0 1 .36.53 1.76 1.76 0 0 1 0 1.32 1.6 1.6 0 0 1-.36.53 1.66 1.66 0 0 1-.54.35 1.88 1.88 0 0 1-1.36 0 1.6 1.6 0 0 1-.89-.88 1.76 1.76 0 0 1 0-1.32 1.62 1.62 0 0 1 .36-.53 1.64 1.64 0 0 1 .54-.35 1.8 1.8 0 0 1 .67-.13zm0 .65a1 1 0 0 0-.39.07.94.94 0 0 0-.31.21 1 1 0 0 0-.21.32 1.15 1.15 0 0 0 0 .82 1 1 0 0 0 .21.32.92.92 0 0 0 .31.21 1.07 1.07 0 0 0 .79 0 .94.94 0 0 0 .32-.21 1 1 0 0 0 .21-.32 1.15 1.15 0 0 0 0-.82.94.94 0 0 0-.53-.53 1 1 0 0 0-.4-.06zm6.36-.65a1.4 1.4 0 0 1 .52.09 1.18 1.18 0 0 1 .41.26 1.17 1.17 0 0 1 .27.4 1.35 1.35 0 0 1 .09.51v2h-.65v-1.77a.89.89 0 0 0-.19-.62.7.7 0 0 0-.55-.22.92.92 0 0 0-.32.05.73.73 0 0 0-.44.42.9.9 0 0 0-.07.36v1.76h-.7v-1.75a.89.89 0 0 0-.19-.62.7.7 0 0 0-.54-.22.92.92 0 0 0-.32.05.75.75 0 0 0-.26.16.76.76 0 0 0-.18.26.92.92 0 0 0-.07.36v1.76h-.69v-3.15h.69v.39a1 1 0 0 1 .21-.23 1.06 1.06 0 0 1 .25-.14 1.2 1.2 0 0 1 .26-.07h.25a1.35 1.35 0 0 1 .65.15 1.13 1.13 0 0 1 .45.42 1.08 1.08 0 0 1 .24-.28 1.16 1.16 0 0 1 .29-.17 1.34 1.34 0 0 1 .31-.09zm3.85 0a1.55 1.55 0 0 1 1.13.47 1.62 1.62 0 0 1 .34.53 1.91 1.91 0 0 1 0 1.34 1.62 1.62 0 0 1-.34.53 1.55 1.55 0 0 1-1.12.47 1.26 1.26 0 0 1-.58-.13 1.24 1.24 0 0 1-.41-.33v1.7h-.69v-4.49h.69v.38a1.25 1.25 0 0 1 .41-.33 1.26 1.26 0 0 1 .57-.14zm-.08.65a1 1 0 0 0-.39.08.91.91 0 0 0-.3.21 1 1 0 0 0-.19.32 1.19 1.19 0 0 0 0 .81 1 1 0 0 0 .19.32.92.92 0 0 0 .3.21.94.94 0 0 0 .39.08 1 1 0 0 0 .4-.08.87.87 0 0 0 .3-.22 1 1 0 0 0 .19-.32 1.2 1.2 0 0 0 0-.79 1 1 0 0 0-.19-.32.88.88 0 0 0-.3-.22 1 1 0 0 0-.4-.07zm5.4 2.61h-.69v-.38a1.21 1.21 0 0 1-.41.34 1.27 1.27 0 0 1-.59.13 1.56 1.56 0 0 1-.62-.12 1.54 1.54 0 0 1-.5-.35 1.58 1.58 0 0 1-.34-.53 1.89 1.89 0 0 1 0-1.34 1.57 1.57 0 0 1 .34-.53 1.54 1.54 0 0 1 1.12-.47 1.25 1.25 0 0 1 .59.13 1.22 1.22 0 0 1 .41.34v-.38h.69zm-1.6-2.6a1 1 0 0 0-.4.08.88.88 0 0 0-.3.22 1 1 0 0 0-.19.32 1.2 1.2 0 0 0 0 .79 1 1 0 0 0 .19.32.87.87 0 0 0 .3.22 1 1 0 0 0 .79 0 .91.91 0 0 0 .3-.21 1 1 0 0 0 .19-.32 1.21 1.21 0 0 0 0-.81 1 1 0 0 0-.19-.32.91.91 0 0 0-.3-.21 1 1 0 0 0-.39-.08zm4.18-.66a1.4 1.4 0 0 1 .52.09 1.21 1.21 0 0 1 .41.26 1.16 1.16 0 0 1 .27.4 1.33 1.33 0 0 1 .09.51v2h-.7v-1.77a.89.89 0 0 0-.19-.62.7.7 0 0 0-.54-.22.93.93 0 0 0-.32.05.74.74 0 0 0-.26.16.78.78 0 0 0-.18.26.94.94 0 0 0-.07.36v1.76h-.69v-3.15h.69v.39a1 1 0 0 1 .21-.23 1.06 1.06 0 0 1 .25-.14 1.22 1.22 0 0 1 .26-.07zm2.63 4.6h-.74l1.13-2-1.41-2.52h.78l1 1.82 1-1.82h.76zm-44.21-10.19h-4.69l-2.66-8.64h-12.18l-2.7 8.64h-4.54l10.67-33.89h5.44zm-18-13.81h9l-4.46-14.63zm25.63.49v13.32h-4.36v-33.89h10.48a11 11 0 0 1 4.12.71 8 8 0 0 1 3 2 8.68 8.68 0 0 1 1.83 3.24 13.87 13.87 0 0 1 .62 4.28 13.87 13.87 0 0 1-.62 4.28 8.68 8.68 0 0 1-1.83 3.24 8 8 0 0 1-3 2 11 11 0 0 1-4.12.71zm0-15.41v10.25h6a5.33 5.33 0 0 0 3.9-1.25 5.3 5.3 0 0 0 1.24-3.88 5.3 5.3 0 0 0-1.24-3.88 5.33 5.33 0 0 0-3.9-1.25zm39.11.02h-8.74v28.71h-4.36v-28.71h-8.73v-5.18h21.83z"/></g></svg>